<svg width="32" height="32" viewBox="0 0 32 32" fill="none" xmlns="http://www.w3.org/2000/svg">
<rect width="32" height="32" rx="7.11111" fill="#2563EB"/>
<path d="M17.88 9.54H20.88C21.8533 9.54 22.5867 9.70667 23.08 10.04C23.5867 10.3733 23.84 10.9533 23.84 11.78V22.86C23.84 23.3267 23.7667 23.6333 23.62 23.78C23.4867 23.9267 23.1933 24 22.74 24H20.64V12.02C20.64 11.8067 20.6067 11.66 20.54 11.58C20.4867 11.4867 20.34 11.44 20.1 11.44H17.88V9.54ZM10.62 24H8.52C8.06667 24 7.76667 23.9267 7.62 23.78C7.48667 23.6333 7.42 23.3267 7.42 22.86V10.34C7.42 10.1 7.48667 9.90667 7.62 9.76C7.75333 9.61333 7.92667 9.54 8.14 9.54H10.62V24ZM11.44 9.54H16.56C16.7733 9.54 16.9467 9.61333 17.08 9.76C17.2133 9.90667 17.28 10.1 17.28 10.34V22.54H15.2C14.8 22.54 14.5133 22.4333 14.34 22.22C14.1667 21.9933 14.08 21.6333 14.08 21.14V12.02C14.08 11.8067 14.0467 11.66 13.98 11.58C13.9267 11.4867 13.78 11.44 13.54 11.44H11.44V9.54Z" fill="black"/>
</svg>
